<?xml version="1.0" standalone="no"?>
<!DOCTYPE svg PUBLIC "-//W3C//DTD SVG 20010904//EN"
 "http://www.w3.org/TR/2001/REC-SVG-20010904/DTD/svg10.dtd">
<svg version="1.0" xmlns="http://www.w3.org/2000/svg"
 width="475.000000pt" height="475.000000pt" viewBox="0 0 475.000000 475.000000"
 preserveAspectRatio="xMidYMid meet">

<g transform="translate(0.000000,475.000000) scale(0.100000,-0.100000)"
fill="#000000" stroke="none">
<path d="M2145 4740 c-450 -48 -855 -208 -1219 -483 -104 -78 -355 -329 -433
-433 -250 -331 -405 -696 -469 -1104 -25 -161 -25 -529 0 -690 64 -408 219
-773 469 -1104 78 -104 329 -355 433 -433 331 -250 696 -405 1104 -469 161
-25 529 -25 690 0 408 64 773 219 1104 469 104 78 355 329 433 433 250 331
405 696 469 1104 25 161 25 529 0 690 -64 408 -219 773 -469 1104 -78 104
-329 355 -433 433 -329 249 -700 407 -1099 468 -118 18 -465 27 -580 15z
m-247 -1121 c123 -42 212 -161 198 -266 -5 -42 -5 -43 42 -69 116 -66 117 -67
96 -75 -10 -3 -41 -12 -69 -18 -94 -22 -173 -93 -197 -177 -12 -45 -3 -146 17
-184 21 -41 83 -90 150 -121 78 -35 494 -159 534 -159 27 0 233 -73 326 -115
85 -39 227 -129 259 -164 21 -23 16 -25 -31 -12 -28 8 -130 19 -223 25 l-24 1
-2 -110 c-2 -152 -40 -308 -93 -389 l-19 -29 -16 30 c-45 88 -197 159 -526
244 -365 95 -504 143 -629 220 -189 116 -295 272 -326 480 -17 108 -5 301 25
407 55 195 197 376 372 473 29 16 58 29 64 29 5 0 38 -9 72 -21z m1296 -86
c87 -53 186 -125 186 -136 0 -5 -30 -52 -67 -105 l-66 -95 -20 24 c-30 36 -75
141 -92 212 -15 64 -20 137 -9 137 4 0 34 -17 68 -37z m-16 -369 c23 -4 32
-10 29 -19 -7 -16 -137 -205 -142 -205 -2 0 -39 22 -82 49 -43 27 -108 63
-143 81 -36 18 -67 34 -69 36 -15 14 93 55 179 67 29 5 179 -2 228 -9z m285
-1254 c15 -67 11 -319 -7 -400 -23 -99 -102 -261 -164 -333 -207 -243 -552
-358 -984 -327 -174 13 -195 22 -100 43 101 23 154 54 259 149 102 93 171 138
259 170 49 18 92 22 264 29 113 4 221 12 240 18 66 20 90 33 90 49 0 8 -31 48
-70 88 -82 87 -118 153 -126 231 -14 138 66 254 209 305 29 10 68 17 87 15 30
-2 35 -6 43 -37z m-1770 -239 c45 -32 107 -74 137 -92 30 -18 66 -41 79 -51
26 -20 146 -78 160 -78 19 0 22 -20 7 -42 -8 -13 -35 -71 -59 -129 -52 -125
-103 -207 -164 -267 -53 -53 -54 -53 -202 19 -157 75 -391 235 -391 266 0 7
16 34 36 60 54 71 306 373 311 373 3 0 41 -27 86 -59z"/>
</g>
</svg>
