<?xml version="1.0" standalone="no"?>
<!DOCTYPE svg PUBLIC "-//W3C//DTD SVG 20010904//EN"
 "http://www.w3.org/TR/2001/REC-SVG-20010904/DTD/svg10.dtd">
<svg version="1.0" xmlns="http://www.w3.org/2000/svg"
 width="475.000000pt" height="475.000000pt" viewBox="0 0 475.000000 475.000000"
 preserveAspectRatio="xMidYMid meet">
<metadata>
Created by potrace 1.14, written by Peter Selinger 2001-2017
</metadata>
<g transform="translate(0.000000,475.000000) scale(0.100000,-0.100000)"
fill="#000000" stroke="none">
<path d="M2125 4739 c-823 -98 -1521 -585 -1877 -1310 -129 -263 -207 -530
-236 -804 -13 -130 -7 -472 12 -593 78 -518 318 -988 687 -1349 57 -56 122
-117 145 -135 23 -18 54 -43 70 -56 69 -56 263 -178 368 -231 251 -129 546
-218 821 -248 90 -10 429 -10 520 0 985 109 1801 823 2044 1787 51 203 69 372
66 610 -2 113 -6 216 -8 230 -2 14 -8 50 -11 80 -22 164 -89 407 -161 574
-225 528 -613 943 -1122 1202 -215 109 -471 191 -718 230 -113 18 -488 26
-600 13z"/>
</g>
</svg>
